<svg xmlns="http://www.w3.org/2000/svg" version="1.1" xmlns:xlink="http://www.w3.org/1999/xlink" xmlns:svgjs="http://svgjs.dev/svgjs" viewBox="0 0 800 800" opacity="0.26"><defs><linearGradient x1="50%" y1="0%" x2="50%" y2="100%" id="rrreflection-grad"><stop stop-color="hsl(185, 53%, 55%)" stop-opacity="1" offset="45%"></stop><stop stop-color="hsl(0, 73%, 55%)" stop-opacity="1" offset="100%"></stop></linearGradient><linearGradient x1="50%" y1="0%" x2="50%" y2="100%" id="rrreflection-grad-2"><stop stop-color="hsl(0, 73%, 55%)" stop-opacity="1" offset="0%"></stop><stop stop-color="hsl(185, 53%, 55%)" stop-opacity="1" offset="45%"></stop></linearGradient><linearGradient gradientTransform="rotate(270)" x1="50%" y1="0%" x2="50%" y2="100%" id="rrreflection-grad-3"><stop stop-color="hsl(185, 53%, 55%)" stop-opacity="1" offset="45%"></stop><stop stop-color="hsl(0, 73%, 55%)" stop-opacity="1" offset="100%"></stop></linearGradient><linearGradient gradientTransform="rotate(270)" x1="50%" y1="0%" x2="50%" y2="100%" id="rrreflection-grad-4"><stop stop-color="hsl(0, 73%, 55%)" stop-opacity="1" offset="0%"></stop><stop stop-color="hsl(185, 53%, 55%)" stop-opacity="1" offset="45%"></stop></linearGradient></defs><g stroke-width="0.5" stroke="url(#rrreflection-grad)" fill="none"><circle r="580" cx="50%" cy="0"></circle><circle r="565.5" cx="50%" cy="0"></circle><circle r="551" cx="50%" cy="0"></circle><circle r="536.5" cx="50%" cy="0"></circle><circle r="522" cx="50%" cy="0"></circle><circle r="507.5" cx="50%" cy="0"></circle><circle r="493" cx="50%" cy="0"></circle><circle r="478.5" cx="50%" cy="0"></circle><circle r="464" cx="50%" cy="0"></circle><circle r="449.5" cx="50%" cy="0"></circle><circle r="435" cx="50%" cy="0"></circle><circle r="420.5" cx="50%" cy="0"></circle><circle r="406" cx="50%" cy="0"></circle><circle r="391.5" cx="50%" cy="0"></circle><circle r="377" cx="50%" cy="0"></circle><circle r="362.5" cx="50%" cy="0"></circle><circle r="348" cx="50%" cy="0"></circle><circle r="333.5" cx="50%" cy="0"></circle><circle r="319" cx="50%" cy="0"></circle><circle r="304.5" cx="50%" cy="0"></circle><circle r="290" cx="50%" cy="0"></circle><circle r="275.5" cx="50%" cy="0"></circle><circle r="261" cx="50%" cy="0"></circle><circle r="246.5" cx="50%" cy="0"></circle><circle r="232" cx="50%" cy="0"></circle><circle r="217.5" cx="50%" cy="0"></circle><circle r="203" cx="50%" cy="0"></circle><circle r="188.5" cx="50%" cy="0"></circle><circle r="174" cx="50%" cy="0"></circle><circle r="159.5" cx="50%" cy="0"></circle><circle r="145" cx="50%" cy="0"></circle><circle r="130.5" cx="50%" cy="0"></circle><circle r="116" cx="50%" cy="0"></circle><circle r="101.5" cx="50%" cy="0"></circle><circle r="87" cx="50%" cy="0"></circle><circle r="72.5" cx="50%" cy="0"></circle><circle r="58" cx="50%" cy="0"></circle><circle r="43.5" cx="50%" cy="0"></circle><circle r="29" cx="50%" cy="0"></circle><circle r="14.5" cx="50%" cy="0"></circle></g><g stroke-width="0.5" stroke="url(#rrreflection-grad-2)" fill="none"><circle r="580" cx="50%" cy="100%"></circle><circle r="565.5" cx="50%" cy="100%"></circle><circle r="551" cx="50%" cy="100%"></circle><circle r="536.5" cx="50%" cy="100%"></circle><circle r="522" cx="50%" cy="100%"></circle><circle r="507.5" cx="50%" cy="100%"></circle><circle r="493" cx="50%" cy="100%"></circle><circle r="478.5" cx="50%" cy="100%"></circle><circle r="464" cx="50%" cy="100%"></circle><circle r="449.5" cx="50%" cy="100%"></circle><circle r="435" cx="50%" cy="100%"></circle><circle r="420.5" cx="50%" cy="100%"></circle><circle r="406" cx="50%" cy="100%"></circle><circle r="391.5" cx="50%" cy="100%"></circle><circle r="377" cx="50%" cy="100%"></circle><circle r="362.5" cx="50%" cy="100%"></circle><circle r="348" cx="50%" cy="100%"></circle><circle r="333.5" cx="50%" cy="100%"></circle><circle r="319" cx="50%" cy="100%"></circle><circle r="304.5" cx="50%" cy="100%"></circle><circle r="290" cx="50%" cy="100%"></circle><circle r="275.5" cx="50%" cy="100%"></circle><circle r="261" cx="50%" cy="100%"></circle><circle r="246.5" cx="50%" cy="100%"></circle><circle r="232" cx="50%" cy="100%"></circle><circle r="217.5" cx="50%" cy="100%"></circle><circle r="203" cx="50%" cy="100%"></circle><circle r="188.5" cx="50%" cy="100%"></circle><circle r="174" cx="50%" cy="100%"></circle><circle r="159.5" cx="50%" cy="100%"></circle><circle r="145" cx="50%" cy="100%"></circle><circle r="130.5" cx="50%" cy="100%"></circle><circle r="116" cx="50%" cy="100%"></circle><circle r="101.5" cx="50%" cy="100%"></circle><circle r="87" cx="50%" cy="100%"></circle><circle r="72.5" cx="50%" cy="100%"></circle><circle r="58" cx="50%" cy="100%"></circle><circle r="43.5" cx="50%" cy="100%"></circle><circle r="29" cx="50%" cy="100%"></circle><circle r="14.5" cx="50%" cy="100%"></circle></g><g stroke-width="0.5" stroke="url(#rrreflection-grad-3)" fill="none"><circle r="580" cx="0" cy="50%"></circle><circle r="565.5" cx="0" cy="50%"></circle><circle r="551" cx="0" cy="50%"></circle><circle r="536.5" cx="0" cy="50%"></circle><circle r="522" cx="0" cy="50%"></circle><circle r="507.5" cx="0" cy="50%"></circle><circle r="493" cx="0" cy="50%"></circle><circle r="478.5" cx="0" cy="50%"></circle><circle r="464" cx="0" cy="50%"></circle><circle r="449.5" cx="0" cy="50%"></circle><circle r="435" cx="0" cy="50%"></circle><circle r="420.5" cx="0" cy="50%"></circle><circle r="406" cx="0" cy="50%"></circle><circle r="391.5" cx="0" cy="50%"></circle><circle r="377" cx="0" cy="50%"></circle><circle r="362.5" cx="0" cy="50%"></circle><circle r="348" cx="0" cy="50%"></circle><circle r="333.5" cx="0" cy="50%"></circle><circle r="319" cx="0" cy="50%"></circle><circle r="304.5" cx="0" cy="50%"></circle><circle r="290" cx="0" cy="50%"></circle><circle r="275.5" cx="0" cy="50%"></circle><circle r="261" cx="0" cy="50%"></circle><circle r="246.5" cx="0" cy="50%"></circle><circle r="232" cx="0" cy="50%"></circle><circle r="217.5" cx="0" cy="50%"></circle><circle r="203" cx="0" cy="50%"></circle><circle r="188.5" cx="0" cy="50%"></circle><circle r="174" cx="0" cy="50%"></circle><circle r="159.5" cx="0" cy="50%"></circle><circle r="145" cx="0" cy="50%"></circle><circle r="130.5" cx="0" cy="50%"></circle><circle r="116" cx="0" cy="50%"></circle><circle r="101.5" cx="0" cy="50%"></circle><circle r="87" cx="0" cy="50%"></circle><circle r="72.5" cx="0" cy="50%"></circle><circle r="58" cx="0" cy="50%"></circle><circle r="43.5" cx="0" cy="50%"></circle><circle r="29" cx="0" cy="50%"></circle><circle r="14.5" cx="0" cy="50%"></circle></g><g stroke-width="0.5" stroke="url(#rrreflection-grad-4)" fill="none"><circle r="580" cx="100%" cy="50%"></circle><circle r="565.5" cx="100%" cy="50%"></circle><circle r="551" cx="100%" cy="50%"></circle><circle r="536.5" cx="100%" cy="50%"></circle><circle r="522" cx="100%" cy="50%"></circle><circle r="507.5" cx="100%" cy="50%"></circle><circle r="493" cx="100%" cy="50%"></circle><circle r="478.5" cx="100%" cy="50%"></circle><circle r="464" cx="100%" cy="50%"></circle><circle r="449.5" cx="100%" cy="50%"></circle><circle r="435" cx="100%" cy="50%"></circle><circle r="420.5" cx="100%" cy="50%"></circle><circle r="406" cx="100%" cy="50%"></circle><circle r="391.5" cx="100%" cy="50%"></circle><circle r="377" cx="100%" cy="50%"></circle><circle r="362.5" cx="100%" cy="50%"></circle><circle r="348" cx="100%" cy="50%"></circle><circle r="333.5" cx="100%" cy="50%"></circle><circle r="319" cx="100%" cy="50%"></circle><circle r="304.5" cx="100%" cy="50%"></circle><circle r="290" cx="100%" cy="50%"></circle><circle r="275.5" cx="100%" cy="50%"></circle><circle r="261" cx="100%" cy="50%"></circle><circle r="246.5" cx="100%" cy="50%"></circle><circle r="232" cx="100%" cy="50%"></circle><circle r="217.5" cx="100%" cy="50%"></circle><circle r="203" cx="100%" cy="50%"></circle><circle r="188.5" cx="100%" cy="50%"></circle><circle r="174" cx="100%" cy="50%"></circle><circle r="159.5" cx="100%" cy="50%"></circle><circle r="145" cx="100%" cy="50%"></circle><circle r="130.5" cx="100%" cy="50%"></circle><circle r="116" cx="100%" cy="50%"></circle><circle r="101.5" cx="100%" cy="50%"></circle><circle r="87" cx="100%" cy="50%"></circle><circle r="72.5" cx="100%" cy="50%"></circle><circle r="58" cx="100%" cy="50%"></circle><circle r="43.5" cx="100%" cy="50%"></circle><circle r="29" cx="100%" cy="50%"></circle><circle r="14.5" cx="100%" cy="50%"></circle></g></svg>
